# xmcd
#
# Track frame offsets:
#	150
#	16271
#	51786
#	64731
#	86670
#	116905
#	138139
#	162933
#	186975
#	206885
#	230331
#
# Disc length: 3444 seconds
#
# Revision: 1
# Processed by: cddbd v1.5.1PL0 Copyright (c) Steve Scherf et al.
# Submitted via: audiograbber 1.83.01
#
DISCID=970d720b
DTITLE=Bobby Messano - The Best of Bobby Messano
DYEAR=1999
DGENRE=Blues
TTITLE0=Get up and dance with the blues
TTITLE1=Dominion roads
TTITLE2=I will try
TTITLE3=Sea of Hope
TTITLE4=Holdin' Ground (Live)
TTITLE5=Hard world
TTITLE6=In the depths of love
TTITLE7=Guess life always works that way
TTITLE8=Hot N Heavy
TTITLE9=The face behind the axe
TTITLE10=Data Track
EXTD=
EXTT0=
EXTT1=
EXTT2=
EXTT3=
EXTT4=
EXTT5=
EXTT6=
EXTT7=
EXTT8=
EXTT9=
EXTT10=
PLAYORDER=
